<svg width="13" height="17" viewBox="0 0 13 17" fill="none" xmlns="http://www.w3.org/2000/svg">
<path d="M6.74937 16.967C6.64072 17.0109 6.52205 17.0109 6.4134 16.967C0.258309 14.498 0.354427 8.64901 0.424973 4.37701C0.432027 3.91801 0.439082 3.48401 0.439082 3.06501C0.437906 2.9087 0.491477 2.75825 0.588031 2.6467C0.684585 2.53514 0.816231 2.47159 0.954063 2.47001C3.15332 2.47001 4.82701 1.73801 6.22293 0.16801C6.26995 0.114523 6.32582 0.0720851 6.38733 0.043129C6.44884 0.0141728 6.51479 -0.000732422 6.58139 -0.000732422C6.64799 -0.000732422 6.71393 0.0141728 6.77544 0.043129C6.83696 0.0720851 6.89282 0.114523 6.93985 0.16801C8.33576 1.73801 10.0103 2.47001 12.2105 2.47001C12.3482 2.47186 12.4796 2.53552 12.5759 2.64705C12.6723 2.75858 12.7257 2.90887 12.7246 3.06501C12.7246 3.48501 12.7316 3.91801 12.7396 4.37701C12.8101 8.64801 12.9062 14.498 6.75025 16.967H6.74937ZM11.7114 4.40001C11.707 4.14201 11.7025 3.89201 11.7008 3.64801C9.63909 3.54701 7.99185 2.82501 6.58183 1.40301C5.17092 2.82501 3.52456 3.54701 1.46464 3.64801L1.45317 4.40001C1.38263 8.69401 1.30326 13.555 6.58183 15.774C11.8613 13.554 11.7819 8.69401 11.7105 4.40001H11.7114ZM9.08002 6.43301C9.17666 6.54575 9.23072 6.69678 9.23072 6.85401C9.23072 7.01124 9.17666 7.16227 9.08002 7.27501L6.23439 10.567C6.18719 10.6223 6.13067 10.6663 6.06818 10.6963C6.00569 10.7264 5.93851 10.7419 5.87064 10.7419C5.80277 10.7419 5.73559 10.7264 5.6731 10.6963C5.61061 10.6663 5.55409 10.6223 5.50689 10.567L4.08364 8.92001C3.98679 8.80739 3.93258 8.65631 3.93258 8.49901C3.93258 8.3417 3.98679 8.19063 4.08364 8.07801C4.1309 8.02282 4.18744 7.97895 4.24992 7.94899C4.3124 7.91903 4.37955 7.9036 4.44739 7.9036C4.51522 7.9036 4.58237 7.91903 4.64485 7.94899C4.70733 7.97895 4.76388 8.02282 4.81114 8.07801L5.8702 9.30401L8.35252 6.43201C8.39978 6.37682 8.45632 6.33295 8.5188 6.30299C8.58128 6.27303 8.64843 6.2576 8.71627 6.2576C8.7841 6.2576 8.85125 6.27303 8.91373 6.30299C8.97621 6.33295 9.03276 6.37682 9.08002 6.43201V6.43301Z" fill="#787878"/>
</svg>
